<?xml version="1.0" encoding="utf-8"?>
<!-- Generator: Adobe Illustrator 16.0.0, SVG Export Plug-In . SVG Version: 6.00 Build 0)  -->
<!DOCTYPE svg PUBLIC "-//W3C//DTD SVG 1.1//EN" "http://www.w3.org/Graphics/SVG/1.1/DTD/svg11.dtd">
<svg version="1.1" id="Слой_1" xmlns="http://www.w3.org/2000/svg" xmlns:xlink="http://www.w3.org/1999/xlink" x="0px" y="0px"
	 width="15.4px" height="14px" viewBox="0 0 15.4 14" enable-background="new 0 0 15.4 14" xml:space="preserve">
<g>
	<g>
	</g>
</g>
<g>
	<g id="Clips_2_">
		<g>
			<path fill="#A6A8AB" d="M14.3,1.2c-1.6-1.6-4.1-1.6-5.6,0L0.9,8.9c-1.2,1.2-1.2,3.1,0,4.2c1,1,2.4,1.1,3.6,0.5
				c0.1,0,0.2,0,0.3-0.1l7.8-7.8c0.8-0.8,0.8-2,0-2.8c-0.8-0.8-2-0.8-2.8,0L3.3,9.3c-0.2,0.2-0.2,0.5,0,0.7c0.2,0.2,0.5,0.2,0.7,0
				l6.3-6.3c0.4-0.4,1-0.4,1.4,0c0.4,0.4,0.4,1,0,1.4l-7.4,7.4c-0.8,0.8-2,0.8-2.8,0c-0.8-0.8-0.8-2,0-2.8l7.8-7.8
				c1.2-1.2,3.1-1.2,4.2,0c1.2,1.2,1.2,3.1,0,4.2l-7.1,7.1c-0.2,0.2-0.2,0.5,0,0.7c0.2,0.2,0.5,0.2,0.7,0l7.1-7.1
				C15.8,5.3,15.8,2.7,14.3,1.2z"/>
		</g>
	</g>
</g>
</svg>
